<?xml version="1.0" encoding="UTF-8"?>
<svg id="Layer_1" data-name="Layer 1" xmlns="http://www.w3.org/2000/svg" version="1.1" viewBox="0 0 80 60">
  <defs>
    <style>
      .cls-1 {
        fill: #fff;
        stroke-width: 0px;
      }
    </style>
  </defs>
  <path class="cls-1" d="M42.4.9c-14.4,0-26.3,10.5-28.6,24.2h-5.2l8.1,9.7,8.1-9.7h-4.3c2.2-10.2,11.2-17.8,22.1-17.8s22.6,10.1,22.6,22.6-10.1,22.6-22.6,22.6-15.4-4.3-19.4-10.9l-5.3,3.6c5.1,8.2,14.3,13.7,24.7,13.7,16,0,29.1-13,29.1-29.1S58.4.9,42.4.9ZM39.2,17.1v14.5l1.2,1,8.1,6.5,2.5,2,4-5-2.5-2-6.9-5.5v-11.3"/>
</svg>