<?xml version="1.0" encoding="UTF-8"?>
<svg xmlns="http://www.w3.org/2000/svg" version="1.1" viewBox="0 0 100 100">
  <defs>
    <style>
      .cls-1 {
        fill: #000;
      }

      .cls-1, .cls-2 {
        stroke-width: 0px;
      }

      .cls-2 {
        fill: #b3b3b3;
      }
    </style>
  </defs>
  <g id="Layer_2" data-name="Layer 2">
    <rect class="cls-2" x="0" width="100" height="100"/>
  </g>
  <g id="Layer_1" data-name="Layer 1">
    <g id="pKKO7x.tif">
      <g>
        <path class="cls-1" d="M46.3,5.6c2.4,0,4.9,0,7.3,0,.4.1.8.3,1.3.3,25,2.7,42.9,26,39,50.8-2.8,18.2-16.5,32.8-34.7,36.8-17.8,3.9-36.4-3.8-46.5-19.3-4.2-6.4-6.3-13.5-7.2-21,0-2.1,0-4.2,0-6.3.1-.5.2-1,.3-1.5,1.6-13.5,8-24.2,19.1-32,6.4-4.5,13.6-6.7,21.3-7.7ZM47.2,9.4c-10.7.3-21.7,5.6-29.9,16.5-10.5,14-10.5,34.2,0,48,1.6,2.2,1.9,2.1,3-.3,1.3-2.9,2.8-5.6,4.8-8,8.3-10.1,18.6-15.2,31.7-12.1,10.9,2.6,17.9,9.9,22.6,19.7,1.4,2.9,1.6,3,3.4.4,6.1-8.7,8.7-18.3,7.3-28.9-2.6-20.3-19.7-35.4-43-35.4Z"/>
        <path class="cls-1" d="M49.9,47.6c-9.2,0-16.3-7.2-16.3-16.4,0-9,7.6-16.4,16.6-16.3,9,.1,16.2,7.7,16.1,16.8,0,9-7.3,16-16.5,15.9Z"/>
      </g>
    </g>
  </g>
</svg>