<?xml version="1.0" encoding="UTF-8"?>
<svg id="Layer_1" data-name="Layer 1" xmlns="http://www.w3.org/2000/svg" version="1.1" viewBox="0 0 100 100">
  <defs>
    <style>
      .cls-1 {
        fill: #000;
        stroke-width: 0px;
      }
    </style>
  </defs>
  <path class="cls-1" d="M62.2,85.9c0-2.1,0-4.3,0-6.4,0-2.1-.6-4.1-1.8-5.8-1.2-1.5-.3-1.8,1-2,1.5-.3,3-.5,4.4-.9,9.2-2.6,14.2-8.8,14.9-18.3.4-5.6-.1-11-4-15.6-.6-.7-.6-1.5-.3-2.3.8-2.9.7-5.7,0-8.6-.6-2.6-1-2.8-3.6-2.3-3.1.6-5.8,2.1-8.4,3.7-1.1.7-2.1.9-3.5.6-6.6-1.6-13.2-1.6-19.8,0-1.6.4-2.9.1-4.2-.8-2.5-1.7-5.3-2.9-8.3-3.6-1.7-.4-2.7,0-3.2,1.8-.7,3.1-.9,6.1-.2,9.2.2.9.2,1.7-.4,2.5-9.8,13.5-2.2,31.7,14.2,34.4.5,0,1,.1,1.4.2,1.3.2,1.7.7.8,1.8-.8.9-1.3,2-1.5,3.2-.3,1.7-1.3,2.4-2.8,2.8-4.9,1.3-8.6,0-11.5-4.3-1.7-2.5-3.5-4.8-6.8-5.2-.8,0-1.9-.4-2.2.5-.4.9.7,1.4,1.4,1.8,2.5,1.5,4,3.9,5,6.4,2,5.3,6.9,7,12.3,6.6,4.1-.4,4.1-.5,4.2,3.6,0,1.4,0,2.8,0,4.1,0,2.9-1.6,4-4.3,3.1-3.9-1.3-7.5-3.1-10.9-5.4C7.8,79.9,0,60.5,3.9,41.4,7.9,22.5,23,7.8,42.2,4.3c26.7-4.8,51.9,13.5,55.7,40.5,3.1,21.9-9.6,43.3-30.4,51.1-3.9,1.4-5.3.5-5.3-3.6,0-2.1,0-4.3,0-6.4h0Z"/>
</svg>