<?xml version="1.0" encoding="UTF-8"?>
<svg id="Layer_1" data-name="Layer 1" xmlns="http://www.w3.org/2000/svg" version="1.1" viewBox="0 0 80 60">
  <defs>
    <style>
      .cls-1 {
        fill: #fff;
        stroke-width: 0px;
      }
    </style>
  </defs>
  <path class="cls-1" d="M15,39.1c5.2,4.7,15.2,13.5,24.2,19.7.2.2.6.3.9.3s.6-.1.9-.3c8.9-6.3,19-15.1,24.2-19.7,3.5-3.2,6.2-6.8,8-10.9,5.8-13-1.3-20.5-6-23.8-3.6-2.5-7.9-3.7-12.1-3.5-8.4.5-12.9,6.2-15,9.9-2-3.7-6.5-9.4-15-9.9-4.2-.3-8.5,1-12.1,3.5C8.2,7.7,1.1,15.2,6.9,28.2c1.8,4.1,4.5,7.7,8,10.9h0Z"/>
</svg>