<?xml version="1.0" encoding="UTF-8"?>
<svg id="Layer_1" data-name="Layer 1" xmlns="http://www.w3.org/2000/svg" version="1.1" viewBox="0 0 100 100">
  <defs>
    <style>
      .cls-1 {
        fill: #000;
        fill-rule: evenodd;
        stroke-width: 0px;
      }
    </style>
  </defs>
  <path class="cls-1" d="M90.6,37.5v-3.5c0-.8-.3-1.6-.9-2.2-.6-.6-1.4-.9-2.2-.9h-9.5c-.1-2.1-.4-4.2-.9-6.2h10.4c2.5,0,4.9,1,6.6,2.7,1.8,1.8,2.7,4.1,2.7,6.6v50c0,2.5-1,4.9-2.7,6.6-1.8,1.8-4.1,2.7-6.6,2.7H12.5c-2.5,0-4.9-1-6.6-2.7-1.8-1.8-2.7-4.1-2.7-6.6v-50c0-2.5,1-4.9,2.7-6.6,1.8-1.8,4.1-2.7,6.6-2.7h10.1c-.5,2.1-.7,4.2-.7,6.2h-9.4c-.8,0-1.6.3-2.2.9-.6.6-.9,1.4-.9,2.2v3.5l38.8,28.7c1.1.8,2.6.8,3.7,0l38.8-28.7ZM9.4,45.3v37.8l22-17.6,5.2,3.9-22.2,17.8h71.2l-22.2-17.8,5.2-3.9,22,17.6v-37.8l-35,26c-3.3,2.5-7.8,2.5-11.2,0L9.4,45.3h0ZM56.5,20.2c-1.9-1.2-4.1-1.8-6.5-1.8-6.9,0-12.5,5.6-12.5,12.5s5.6,12.5,12.5,12.5,6.2-1.3,8.5-3.3c1.7,2,4.3,3.3,7.1,3.3,5.2,0,9.4-4.2,9.4-9.4s-1.6-15.1-7.3-20.8c-9.8-9.8-25.6-9.8-35.4,0-9.8,9.8-9.8,25.6,0,35.4,6.7,6.7,16.3,8.8,24.8,6.3,1.7-.5,2.6-2.2,2.1-3.9s-2.2-2.6-3.9-2.1c-6.4,1.9-13.6.3-18.6-4.7-7.3-7.3-7.3-19.2,0-26.5,7.3-7.3,19.2-7.3,26.5,0,4.4,4.4,5.5,10.9,5.5,16.4s-1.4,3.1-3.1,3.1-3.1-1.4-3.1-3.1v-12.5c0-1.7-1.4-3.1-3.1-3.1s-2.4.8-2.9,1.8h0ZM50,24.6c3.4,0,6.2,2.8,6.2,6.2s-2.8,6.3-6.2,6.3-6.2-2.8-6.2-6.2,2.8-6.2,6.2-6.3Z"/>
</svg>