<?xml version="1.0" encoding="UTF-8"?>
<svg id="Layer_1" data-name="Layer 1" xmlns="http://www.w3.org/2000/svg" version="1.1" viewBox="0 0 550 550">
  <defs>
    <style>
      .cls-1 {
        fill: #aaa;
        fill-rule: evenodd;
        stroke-width: 0px;
      }
    </style>
  </defs>
  <path class="cls-1" d="M140.9,195.8c4.1,0,7.9-2,10.3-5.3L254.7,45.6c15.5-21.7,40.5-34.6,67.2-34.6,63.4,0,103.2,68.5,71.7,123.5l-32,56c-1.3,2.4.3,5.3,3.1,5.3h117.2c32.3,0,57.1,28.8,52.2,60.8l-36.5,237.6c-4,25.7-26.1,44.8-52.2,44.8H68.2c-29.2,0-52.8-23.6-52.8-52.8v-237.6c0-29.2,23.6-52.8,52.8-52.8h72.7ZM194.1,221.2l103.5-144.9c5.6-7.8,14.6-12.5,24.2-12.5,22.9,0,37.2,24.7,25.9,44.5l-32,56c-21.5,37.5,5.6,84.3,48.9,84.3h117.2l-36.6,237.6H147.4v-237.9c18.6-1.9,35.7-11.7,46.7-27.1h0ZM94.6,248.6h-26.4v237.6h26.4v-237.6Z"/>
</svg>