<?xml version="1.0" encoding="UTF-8"?>
<svg id="Layer_1" data-name="Layer 1" xmlns="http://www.w3.org/2000/svg" version="1.1" viewBox="0 0 80 60">
  <defs>
    <style>
      .cls-1 {
        fill: #fff;
        stroke-width: 0px;
      }
    </style>
  </defs>
  <path class="cls-1" d="M17.2,29.2c-1.1,0-2,.9-2,2v25.1c0,1.1.9,2,2,2h45.9c1.1,0,2-.9,2-2v-25.1c0-1.1-.9-2-2-2s-2,.9-2,2v23.1H19.2v-23.1c0-1.1-.9-2-2-2Z"/>
  <path class="cls-1" d="M6.6,31.2c.4,0,.9-.1,1.2-.4L40.2,6.2l32,23.6c.9.7,2.1.5,2.8-.4.7-.9.5-2.1-.4-2.8L41.3,2.1c-.7-.5-1.7-.5-2.4,0L5.4,27.6c-.9.7-1.1,1.9-.4,2.8.4.5,1,.8,1.6.8h0Z"/>
</svg>