<?xml version="1.0" encoding="UTF-8"?>
<svg id="Layer_1" data-name="Layer 1" xmlns="http://www.w3.org/2000/svg" version="1.1" viewBox="0 0 550 550">
  <defs>
    <style>
      .cls-1 {
        fill: #aaa;
        stroke-width: 0px;
      }
    </style>
  </defs>
  <path class="cls-1" d="M274.9,513.2c-61.7,0-123.3,0-185,0-19.3,0-36.7-6-51.4-18.8-17.2-14.9-26.4-34.1-26.4-56.7-.3-91.8-.3-183.7,0-275.5.1-38.4,29.4-70.1,67.5-74.7,8.8-1.1,17.6-.6,26.5-.7,16.8-.1,33.7-.1,50.5,0,4.1,0,5.6-1.3,5.5-5.4-.2-10-.1-20,0-30,0-5.9,1.8-10.9,7.7-13.4,9.4-3.9,18.3,2,18.5,12.7.3,10.2.3,20.3,0,30.5-.1,4.5,1.5,5.7,5.8,5.6,54-.1,108-.1,162,0,4.6,0,6.1-1.4,6-6-.3-10.2-.3-20.3,0-30.5.3-11,11-17,20.2-11.6,4.7,2.8,6.1,7.3,6.1,12.4,0,10,.2,20,0,30-.1,4.5,1.5,5.7,5.8,5.7,22.2-.2,44.3-.1,66.5,0,38,.1,68.5,25.1,76.2,62.3,1.1,5.2,1.6,10.5,1.6,15.9,0,90,0,180,0,270,0,44.5-33.8,78.1-78.3,78.1-61.7,0-123.3,0-185,0ZM275.3,213.2c-76.8,0-153.6,0-230.5,0-6.6,0-6.6,0-6.6,6.6,0,71.8,0,143.6,0,215.5,0,30,21.3,51.5,51.3,51.5,123.6,0,247.3,0,370.9,0,3,0,6,0,9-.5,26-4.7,42.4-24.3,42.4-50.8,0-71.5,0-143,0-214.5q0-7.8-8-7.8c-76.2,0-152.3,0-228.5,0ZM274.8,186.8c67.5,0,135,0,202.5,0,9.5,0,19-.2,28.5,0,4.9.2,6.4-1.6,6.1-6.3-.3-6.1,0-12.3-.1-18.5-.4-26.1-22.6-48.5-48.6-48.8-23.2-.2-46.3,0-69.5-.1-4.1,0-5.6,1.3-5.5,5.4.2,10,.1,20,0,30,0,5.6-1.7,10.6-7.3,13.2-9.2,4.2-18.7-1.6-19-12-.3-10.3-.3-20.7,0-31,.1-4.5-1.5-5.7-5.8-5.7-54.2.1-108.3.1-162.5,0-4.1,0-5.6,1.3-5.5,5.4.2,10,.1,20,0,30,0,5.9-1.8,10.9-7.7,13.4-9.4,3.9-18.3-2.1-18.5-12.7-.2-10.2-.2-20.3,0-30.5,0-4-1-5.6-5.3-5.6-23.3.2-46.7,0-70,.2-23,.2-42.9,17.2-47.4,39.9-1.7,8.8-.8,17.6-1,26.4-.2,7.1,0,7.2,7.1,7.2,76.5,0,153,0,229.5,0Z"/>
  <path class="cls-1" d="M138,236.8c11.7,0,23.3,0,35,0,10.2,0,15.1,4.9,15.2,15,0,23.8,0,47.6,0,71.4,0,9.9-4.9,14.9-14.7,14.9-24,.1-48,.1-71.9,0-9.8,0-14.6-5.1-14.7-15,0-23.8,0-47.6,0-71.4,0-10,5-14.9,15.2-14.9,12,0,24,0,36,0ZM137.4,311.8c6.7,0,13.3,0,20,0,3.2,0,4.5-1.1,4.5-4.4,0-13.3,0-26.6,0-39.9,0-3.3-1.3-4.4-4.5-4.4-13.1,0-26.3.1-39.4,0-3.4,0-4.8,1.1-4.7,4.6.1,13.1.1,26.3,0,39.4,0,3.5,1.4,4.7,4.7,4.6,6.5-.2,13,0,19.5,0Z"/>
  <path class="cls-1" d="M361.8,287.5c0-11.8,0-23.6,0-35.5,0-10.2,4.9-15.1,15-15.2,23.8,0,47.6,0,71.4,0,9.9,0,14.9,4.9,14.9,14.7.1,24,.1,48,0,71.9,0,9.6-4.9,14.6-14.5,14.7-24.1.1-48.3.1-72.4,0-9.5,0-14.3-5.1-14.4-14.7,0-12,0-24,0-36ZM412.4,311.8c6.7,0,13.3,0,20,0,3.1,0,4.5-1.1,4.5-4.4,0-13.3,0-26.6,0-39.9,0-3.3-1.3-4.4-4.5-4.4-13.1,0-26.3.1-39.4,0-3.4,0-4.8,1.1-4.8,4.6.1,13.1.1,26.3,0,39.4,0,3.5,1.4,4.7,4.7,4.6,6.5-.2,13,0,19.5,0Z"/>
  <path class="cls-1" d="M137.5,361.8c11.8,0,23.6,0,35.5,0,10.2,0,15.2,4.8,15.2,14.9,0,23.8,0,47.6,0,71.4,0,10.1-5,14.9-15.2,15-23.6,0-47.3,0-70.9,0-10.4,0-15.2-5-15.2-15.5,0-23.5,0-47,0-70.4,0-10.7,4.9-15.4,15.7-15.4,11.7,0,23.3,0,35,0ZM161.8,412.6c0-6.7,0-13.3,0-20,0-3.1-1.1-4.5-4.3-4.5-13.3,0-26.6,0-39.9,0-3.3,0-4.4,1.3-4.4,4.5,0,13.1,0,26.3,0,39.4,0,3.4,1.1,4.8,4.6,4.8,13.1-.1,26.3-.1,39.4,0,3.5,0,4.7-1.4,4.6-4.7-.2-6.5,0-13,0-19.5Z"/>
  <path class="cls-1" d="M361.8,412.1c0-11.7,0-23.3,0-35,0-10.4,4.9-15.3,15.3-15.3,23.6,0,47.3,0,70.9,0,10.1,0,15.1,4.9,15.1,15.1,0,23.8,0,47.6,0,71.4,0,9.9-5,14.8-14.8,14.8-23.8,0-47.6,0-71.4,0-10.2,0-15-5-15.1-15.1,0-12,0-24,0-36ZM388.3,412.1c0,6.8,0,13.6,0,20.5,0,2.9,1.1,4.2,4.1,4.2,13.5,0,27,0,40.4,0,3,0,4.1-1.3,4.1-4.2,0-13.3,0-26.6,0-39.9,0-3.1-1.1-4.5-4.3-4.5-13.3,0-26.6,0-39.9,0-3.3,0-4.4,1.3-4.4,4.5.1,6.5,0,13,0,19.5Z"/>
  <path class="cls-1" d="M224.7,287.3c0-12.2,0-24.3,0-36.5,0-9.2,4.6-13.9,13.8-13.9,24.3-.1,48.6-.1,72.9,0,9.4,0,13.9,4.9,13.9,14.4,0,24.1,0,48.3,0,72.4,0,9.7-4.6,14.4-14.4,14.5-24,0-48,0-71.9,0-9.8,0-14.4-4.7-14.4-14.4,0-12.2,0-24.3,0-36.5ZM275,311.8c6.8,0,13.7,0,20.5,0,2.9,0,4.2-1,4.2-4.1,0-13.5,0-27,0-40.5,0-3.1-1.3-4.1-4.2-4.1-13.7,0-27.3,0-41,0-2.9,0-4.2,1-4.2,4.1,0,13.5,0,27,0,40.5,0,3.1,1.3,4.1,4.2,4.1,6.8,0,13.7,0,20.5,0Z"/>
  <path class="cls-1" d="M224.7,412.2c0-12.2,0-24.3,0-36.5,0-9.1,4.6-13.9,13.8-13.9,24.3-.1,48.6-.1,72.9,0,9.2,0,13.9,4.8,13.9,13.9,0,24.5,0,49,0,73.4,0,9.1-4.7,13.9-13.9,14-24.3.1-48.6.1-72.9,0-9.4,0-13.9-4.9-13.9-14.4,0-12.2,0-24.3,0-36.5ZM274.8,436.8c6.8,0,13.7,0,20.5,0,3.2,0,4.4-1.1,4.4-4.4-.1-13.3-.1-26.6,0-40,0-3.3-1.4-4.3-4.5-4.3-13.5,0-27,0-40.5,0-3.2,0-4.4,1.2-4.4,4.4.1,13.2.2,26.3,0,39.5,0,3.8,1.5,4.9,5,4.8,6.5-.2,13,0,19.5,0Z"/>
</svg>