<?xml version="1.0" encoding="UTF-8"?>
<svg id="Layer_1" data-name="Layer 1" xmlns="http://www.w3.org/2000/svg" version="1.1" viewBox="0 0 80 60">
  <defs>
    <style>
      .cls-1 {
        fill: #fff;
        fill-rule: evenodd;
        stroke-width: 0px;
      }
    </style>
  </defs>
  <path class="cls-1" d="M30,18.8c0,2.1-1.7,3.8-3.8,3.8s-3.8-1.7-3.8-3.8c0-4.2,1.5-8.3,4.3-11.5,2.8-3.2,6.6-5.3,10.8-5.9,4.2-.6,8.4.3,12,2.6,3.6,2.3,6.2,5.8,7.4,9.8,1.2,4.1.9,8.4-.9,12.2-1.8,3.8-4.8,6.9-8.7,8.7-2.2.9-3.5,3.1-3.5,5.4v3.3c0,2.1-1.7,3.8-3.8,3.8s-3.8-1.7-3.8-3.8v-3.3c0-2.6.7-5.2,2.1-7.3s3.4-3.9,5.8-5c1.8-.8,3.3-2.1,4.3-3.7,1.7-2.7,2.1-6,1-9-1.1-3-3.5-5.2-6.6-6.1-3-.9-6.3-.3-8.9,1.6-2.5,1.9-4,4.9-4,8.1h0ZM40,50.6c1.6,0,3.1,1,3.7,2.5.6,1.5.3,3.2-.9,4.4s-2.9,1.5-4.4.9c-1.5-.6-2.5-2.1-2.5-3.7s.4-2.1,1.2-2.9c.8-.8,1.8-1.2,2.9-1.2Z"/>
</svg>