<?xml version="1.0" encoding="UTF-8"?>
<svg id="Layer_1" data-name="Layer 1" xmlns="http://www.w3.org/2000/svg" version="1.1" viewBox="0 0 550 550">
  <defs>
    <style>
      .cls-1 {
        fill: #aaa;
        stroke-width: 0px;
      }
    </style>
  </defs>
  <path class="cls-1" d="M235.4,12.6c-123.2,0-223,100-222.9,223.1,0,123.2,100,223,223.1,222.9,47.1,0,92.9-14.9,131-42.6l111.1,111.1c13.7,13.7,35.8,13.7,49.5,0s13.7-35.8,0-49.5l-111.1-111.1c72.4-99.5,50.4-238.9-49.1-311.3-38.2-27.8-84.3-42.8-131.6-42.6ZM235.4,388.7c-84.5,0-153.1-68.5-153.1-153.1S150.9,82.6,235.4,82.6s153.1,68.5,153.1,153.1c0,84.5-68.6,153-153.1,153.1Z"/>
</svg>