<?xml version="1.0" encoding="UTF-8"?>
<svg id="Layer_1" data-name="Layer 1" xmlns="http://www.w3.org/2000/svg" version="1.1" viewBox="0 0 550 550">
  <defs>
    <style>
      .cls-1 {
        fill: #aaa;
        stroke-width: 0px;
      }
    </style>
  </defs>
  <path class="cls-1" d="M274.9,508.7c-78.7,0-157.5,0-236.2,0-13.5,0-18.1-4.5-17.6-17.9,2.7-72.7,54.4-128.2,120.1-140.5,8.6-1.6,17.2-2.3,26-2.3,71.8,0,143.6,0,215.4,0,72.8.1,133.9,53,144.6,124.9.9,6.3,1.6,12.7,1.8,19.1.4,11.8-4.5,16.6-16.2,16.6-79.3,0-158.5,0-237.8,0ZM275,481.3c72.7,0,145.3,0,218,0,6.7,0,6.9,0,5.7-6.7-6.1-33.3-23.1-59.6-51-78.7-20.7-14.2-44-20.4-68.9-20.4-68,0-136.1,0-204.1,0-9.1,0-18.1.7-27,2.1-47.6,7.4-89.1,49.3-96.2,96.9q-1,6.8,6.1,6.8c72.5,0,145,0,217.4,0Z"/>
  <path class="cls-1" d="M141.3,175.3c0-73.9,60.1-134.1,133.8-134.1,73.4,0,133.5,60.3,133.5,133.9,0,73.8-60.2,134.1-133.8,134.1-73.4,0-133.5-60.3-133.5-133.9ZM274.9,281.1c53.8.6,106.2-42.5,106.1-106-.1-63.4-52.4-105.7-105.9-105.8-53.7,0-106.2,42.7-106.1,106.1.1,63.4,52.3,106.2,105.9,105.7Z"/>
</svg>