<?xml version="1.0" encoding="UTF-8"?>
<svg id="Layer_1" data-name="Layer 1" xmlns="http://www.w3.org/2000/svg" version="1.1" viewBox="0 0 550 550">
  <defs>
    <style>
      .cls-1 {
        fill: #aaa;
        stroke-width: 0px;
      }
    </style>
  </defs>
  <path class="cls-1" d="M255.5,88c0-6-.1-12,0-17.9.4-14.1,10.2-24.4,23-24.2,12.7.2,22.3,10.2,22.6,24,.2,12.2.2,24.4,0,36.5,0,4.7,1.5,6.4,6.4,6.9,34.2,3.6,66.9,12.8,97.5,28.6,4.5,2.3,7.3,2,10.8-1.7,13.9-14.3,28.1-28.2,42.2-42.3,5.4-5.4,11.7-8.8,19.6-8,9.1,1,15.9,5.6,19,14.4,3.2,8.8,1.8,17.1-4.9,24-12.3,12.5-24.6,24.9-37.1,37.1-3.9,3.8-3.6,5.7.5,9.1,46.4,38.9,75.8,87.7,85,147.9,1.6,10.3,2.2,20.7,1.9,31.1-.3,12.9-9.7,22.5-22.1,22.8-12.2.2-22.3-9.4-22.7-22.1-1.1-41.3-13.3-78.8-38.7-111.5-33.4-43.1-77.5-69.7-130.7-80.2-70.2-13.9-135.3-1.1-192.6,43-41.6,32-67,74.2-74.1,126.7-1,7.2-1.2,14.6-1.6,21.8-.7,12.9-10.3,22.5-22.6,22.3-12.6-.1-22.2-10-22.2-23.3-.2-53.5,18-100.5,50.8-142.2,10.7-13.6,22.8-26,36.4-36.7,4.2-3.3,3.8-5.2.2-8.7-12.1-11.7-23.9-23.7-35.8-35.6-9.9-10-10.6-24.1-1.7-33.2,9.3-9.6,23.1-9.2,33.7,1.1,14.2,14,28.3,28,42.2,42.3,3.5,3.6,6.2,4.3,10.8,1.9,30.8-16,63.7-25.2,98.1-28.7,4.7-.5,6-2.3,5.9-6.6-.2-6.2,0-12.4,0-18.6h0Z"/>
  <path class="cls-1" d="M278.1,221c79.9,1.2,143.3,63,143.4,143.3.2,79.7-62.7,143.3-143,143.4-79.7.1-143.2-62.6-143.4-143-.2-79.7,62.8-142.2,143-143.7ZM180.4,364.3c0,54.1,43.9,98.1,97.9,98.1,53.7,0,97.9-43.9,98-97.4.1-54.2-43.7-98.4-97.6-98.4-54.2,0-98.3,43.7-98.3,97.7Z"/>
</svg>