<?xml version="1.0" encoding="UTF-8"?>
<svg id="Layer_1" data-name="Layer 1" xmlns="http://www.w3.org/2000/svg" version="1.1" viewBox="0 0 192 192">
  <defs>
    <style>
      .cls-1 {
        fill: #fff;
        stroke-width: 0px;
      }
    </style>
  </defs>
  <path class="cls-1" d="M180.3,53.4c-2-7.6-8-13.6-15.6-15.7-13.7-3.7-68.8-3.7-68.8-3.7,0,0-55,0-68.8,3.7-7.6,2-13.5,8-15.6,15.7-3.7,13.8-3.7,42.6-3.7,42.6,0,0,0,28.8,3.7,42.6,2,7.6,8,13.6,15.6,15.7,13.7,3.7,68.8,3.7,68.8,3.7,0,0,55,0,68.8-3.7,7.6-2,13.5-8,15.6-15.7,3.7-13.8,3.7-42.6,3.7-42.6,0,0,0-28.8-3.7-42.6Z"/>
  <polygon class="cls-1" points="78 122.2 124 96 78 69.8 78 122.2"/>
</svg>