<?xml version="1.0" encoding="UTF-8"?>
<svg id="Layer_1" data-name="Layer 1" xmlns="http://www.w3.org/2000/svg" version="1.1" viewBox="0 0 550 255.1">
  <defs>
    <style>
      .cls-1 {
        fill: #ee3124;
      }

      .cls-1, .cls-2, .cls-3 {
        stroke-width: 0px;
      }

      .cls-2 {
        fill: #414042;
      }

      .cls-3 {
        fill: #fff;
      }
    </style>
  </defs>
  <g>
    <path class="cls-1" d="M203.5,98.3c-1.4-5.2-5.5-9.3-10.7-10.7-9.5-2.5-47.5-2.5-47.5-2.5,0,0-38,0-47.5,2.5-5.2,1.4-9.3,5.5-10.7,10.7-2.5,9.5-2.5,29.2-2.5,29.2,0,0,0,19.8,2.5,29.2,1.4,5.2,5.5,9.3,10.7,10.7,9.5,2.5,47.5,2.5,47.5,2.5,0,0,38,0,47.5-2.5,5.2-1.4,9.3-5.5,10.7-10.7,2.5-9.5,2.5-29.2,2.5-29.2,0,0,0-19.8-2.5-29.2Z"/>
    <polygon class="cls-3" points="133.1 145.8 164.7 127.6 133.1 109.3 133.1 145.8"/>
  </g>
  <g>
    <path class="cls-2" d="M260.9,162.4c-2.4-1.6-4.1-4.1-5.1-7.6-1-3.4-1.5-8-1.5-13.6v-7.7c0-5.7.6-10.3,1.7-13.8,1.2-3.5,3-6,5.4-7.6,2.5-1.6,5.7-2.4,9.7-2.4s7.1.8,9.5,2.4c2.4,1.6,4.1,4.2,5.2,7.6,1.1,3.4,1.7,8,1.7,13.8v7.7c0,5.7-.5,10.2-1.6,13.7-1.1,3.4-2.8,6-5.2,7.6-2.4,1.6-5.7,2.4-9.8,2.4s-7.5-.8-9.9-2.4ZM274.4,154.1c.7-1.7,1-4.6,1-8.5v-16.6c0-3.8-.3-6.6-1-8.4-.7-1.8-1.8-2.6-3.5-2.6s-2.8.9-3.4,2.6c-.7,1.8-1,4.6-1,8.4v16.6c0,3.9.3,6.8,1,8.5.6,1.7,1.8,2.6,3.5,2.6s2.9-.9,3.5-2.6Z"/>
    <path class="cls-2" d="M445.4,141.3v2.7c0,3.4,0,6,.3,7.7.2,1.7.6,3,1.3,3.7.6.8,1.6,1.2,3,1.2s3-.7,3.7-2.1c.7-1.4,1-3.7,1.1-7l10.3.6c0,.5,0,1.1,0,1.9,0,4.9-1.3,8.6-4,11-2.7,2.4-6.5,3.6-11.4,3.6s-10-1.9-12.4-5.6c-2.4-3.7-3.6-9.4-3.6-17.2v-9.3c0-8,1.2-13.8,3.7-17.5,2.5-3.7,6.7-5.5,12.6-5.5s7.3.8,9.5,2.3c2.2,1.5,3.7,3.9,4.6,7,.9,3.2,1.3,7.6,1.3,13.2v9.1h-20.1ZM446.9,118.9c-.6.8-1,2-1.2,3.7-.2,1.7-.3,4.3-.3,7.8v3.8h8.8v-3.8c0-3.4-.1-6-.3-7.8-.2-1.8-.7-3-1.3-3.7-.6-.7-1.6-1.1-2.8-1.1s-2.2.4-2.8,1.1Z"/>
    <path class="cls-2" d="M231.7,140.3l-13.6-49.3h11.9l4.8,22.3c1.2,5.5,2.1,10.2,2.7,14.1h.3c.4-2.8,1.3-7.4,2.7-14l5-22.4h11.9l-13.8,49.3v23.6h-11.8v-23.6Z"/>
    <path class="cls-2" d="M326.1,110.7v53.3h-9.4l-1-6.5h-.3c-2.5,4.9-6.4,7.4-11.5,7.4s-6.1-1.2-7.8-3.5c-1.7-2.3-2.5-5.9-2.5-10.9v-39.8h12v39.1c0,2.4.3,4.1.8,5.1.5,1,1.4,1.5,2.6,1.5s2-.3,3-1c1-.6,1.7-1.4,2.1-2.4v-42.3h12Z"/>
    <path class="cls-2" d="M387.6,110.7v53.3h-9.4l-1-6.5h-.3c-2.5,4.9-6.4,7.4-11.5,7.4s-6.1-1.2-7.8-3.5c-1.7-2.3-2.5-5.9-2.5-10.9v-39.8h12v39.1c0,2.4.3,4.1.8,5.1.5,1,1.4,1.5,2.6,1.5s2-.3,3-1c1-.6,1.7-1.4,2.1-2.4v-42.3h12Z"/>
    <path class="cls-2" d="M358.7,100.7h-11.9v63.2h-11.7v-63.2h-11.9v-9.6h35.5v9.6Z"/>
    <path class="cls-2" d="M427.3,119.2c-.7-3.4-1.9-5.8-3.5-7.3-1.6-1.5-3.9-2.3-6.7-2.3s-4.3.6-6.2,1.9c-1.9,1.2-3.4,2.9-4.4,4.9h0v-28.1s-11.6,0-11.6,0v75.6h9.9l1.2-5h.3c.9,1.8,2.3,3.2,4.2,4.3,1.9,1,3.9,1.6,6.2,1.6,4.1,0,7-1.9,8.9-5.6,1.9-3.7,2.9-9.6,2.9-17.5v-8.4c0-6-.4-10.6-1.1-14ZM416.3,140.9c0,3.9-.2,6.9-.5,9.1-.3,2.2-.9,3.8-1.6,4.7-.8.9-1.8,1.4-3,1.4s-1.9-.2-2.7-.7c-.8-.5-1.5-1.2-2-2.1v-30.2c.4-1.4,1.1-2.6,2.1-3.6,1-.9,2.1-1.4,3.2-1.4s2.2.5,2.8,1.4c.7,1,1.1,2.6,1.4,4.8.3,2.3.4,5.5.4,9.6v6.9Z"/>
  </g>
</svg>